<svg xmlns="http://www.w3.org/2000/svg" width="1080" height="1080" viewBox="0 0 1080 1080">
  <!-- Background (hidden) -->
  <rect x="0" y="0" width="1080" height="1080" fill="white" visibility="hidden" />

  <!-- Main Logo Paths -->
  <g transform="matrix(3.27 0 0 3.27 532 561.59)">
    <path
      d="M -0.5 -0.5 C 166.167 -0.5 332.833 -0.5 499.5 -0.5 C 499.5 166.167 499.5 332.833 499.5 499.5 C 332.833 499.5 166.167 499.5 -0.5 499.5 C -0.5 332.833 -0.5 166.167 -0.5 -0.5 Z"
      fill="#fefefe"
      fill-rule="evenodd"
      opacity="0.102"
    />
  </g>

  <!-- Additional Paths -->
  <g transform="matrix(3.27 0 0 3.27 762.5 308.2)">
    <path
      d="M 256.5 109.5 C 311.232 113.413 350.399 140.079 374 189.5 C 379.918 203.921 383.084 218.921 383.5 234.5 C 379.167 234.5 374.833 234.5 370.5 234.5 C 367.325 186.981 344.325 152.814 301.5 132 C 287.128 125.824 272.128 122.324 256.5 121.5 C 256.5 117.5 256.5 113.5 256.5 109.5 Z"
      fill="#14191f"
      fill-rule="evenodd"
      opacity="0.998"
    />
  </g>

  <g transform="matrix(3.27 0 0 3.27 316.21 310.04)">
    <path
      d="M 237.5 109.5 C 240.833 109.5 244.167 109.5 247.5 109.5 C 247.5 113.5 247.5 117.5 247.5 121.5 C 199.818 124.724 164.984 147.391 143 189.5 C 136.658 204.198 133.158 219.532 132.5 235.5 C 128.116 235.826 123.783 235.492 119.5 234.5 C 127.984 163.683 167.318 122.016 237.5 109.5 Z"
      fill="#141920"
      fill-rule="evenodd"
      opacity="0.999"
    />
  </g>

  <!-- Add more paths as needed from the original file -->

  <!-- Final Path -->
  <g transform="matrix(3.27 0 0 3.27 656.98 891.81)">
    <path
      d="M 319.5 339.5 C 300.582 352.806 279.582 360.139 256.5 361.5 C 255.35 359.733 256.017 358.567 258.5 358 C 269.815 357.755 280.815 355.755 291.5 352 C 301.045 348.056 310.378 343.889 319.5 339.5 Z"
      fill="#bbbfb6"
      fill-rule="evenodd"
      opacity="0.769"
    />
  </g>
</svg>