<svg xmlns="http://www.w3.org/2000/svg" xmlns:xlink="http://www.w3.org/1999/xlink" version="1.1" width="1080" height="1080" viewBox="0 0 1080 1080">
  <desc>Created with Fabric.js 5.2.4</desc>
  <defs></defs>
  <g transform="matrix(1 0 0 1 540 540)" id="77e81289-aae9-4ca9-8baa-6931aa8c0a66">
    <rect style="stroke: none; stroke-width: 1; stroke-dasharray: none; stroke-linecap: butt; stroke-dashoffset: 0; stroke-linejoin: miter; stroke-miterlimit: 4; fill: rgb(255,255,255); fill-rule: nonzero; opacity: 1; visibility: hidden;" vector-effect="non-scaling-stroke" x="-540" y="-540" rx="0" ry="0" width="1080" height="1080"></rect>
  </g>
  <g transform="matrix(1 0 0 1 540 540)" id="e7c460b6-0482-4fae-bbfd-ec89df303bd1"></g>
  <g transform="matrix(3.27 0 0 3.27 532 561.59)"></g>
  <g transform="matrix(3.27 0 0 3.27 762.5 308.2)">
    <path style="stroke: none; stroke-width: 1; stroke-dasharray: none; stroke-linecap: butt; stroke-dashoffset: 0; stroke-linejoin: miter; stroke-miterlimit: 4; fill-rule: evenodd; opacity: 0.998;" vector-effect="non-scaling-stroke" transform=" translate(-320, -172)" d="M 256.5 109.5 C 311.232 113.413 350.399 140.079 374 189.5 C 379.918 203.921 383.084 218.921 383.5 234.5 C 379.167 234.5 374.833 234.5 370.5 234.5 C 367.325 186.981 344.325 152.814 301.5 132 C 287.128 125.824 272.128 122.324 256.5 121.5 C 256.5 117.5 256.5 113.5 256.5 109.5 Z" stroke-linecap="round"></path>
  </g>
  <g transform="matrix(3.27 0 0 3.27 316.21 310.04)">
    <path style="stroke: none; stroke-width: 1; stroke-dasharray: none; stroke-linecap: butt; stroke-dashoffset: 0; stroke-linejoin: miter; stroke-miterlimit: 4; fill-rule: evenodd; opacity: 0.999;" vector-effect="non-scaling-stroke" transform=" translate(-183.5, -172.56)" d="M 237.5 109.5 C 240.833 109.5 244.167 109.5 247.5 109.5 C 247.5 113.5 247.5 117.5 247.5 121.5 C 199.818 124.724 164.984 147.391 143 189.5 C 136.658 204.198 133.158 219.532 132.5 235.5 C 128.116 235.826 123.783 235.492 119.5 234.5 C 127.984 163.683 167.318 122.016 237.5 109.5 Z" stroke-linecap="round"></path>
  </g>
  <g transform="matrix(3.27 0 0 3.27 725.05 342.53)">
    <path style="stroke: none; stroke-width: 1; stroke-dasharray: none; stroke-linecap: butt; stroke-dashoffset: 0; stroke-linejoin: miter; stroke-miterlimit: 4; fill-rule: evenodd; opacity: 0.998;" vector-effect="non-scaling-stroke" transform=" translate(-308.55, -182.5)" d="M 256.5 130.5 C 300.056 134.588 331.889 155.922 352 194.5 C 358.313 207.087 361.147 220.42 360.5 234.5 C 356.833 234.5 353.167 234.5 349.5 234.5 C 345.657 195.49 325.991 167.657 290.5 151 C 279.632 146.393 268.299 143.893 256.5 143.5 C 256.5 139.167 256.5 134.833 256.5 130.5 Z" stroke-linecap="round"></path>
  </g>
  <g transform="matrix(3.27 0 0 3.27 635.88 379.32)">
    <path style="stroke: none; stroke-width: 1; stroke-dasharray: none; stroke-linecap: butt; stroke-dashoffset: 0; stroke-linejoin: miter; stroke-miterlimit: 4; fill-rule: evenodd; opacity: 0.999;" vector-effect="non-scaling-stroke" transform=" translate(-281.27, -193.75)" d="M 248.5 186.5 C 251.461 183.821 259.238 181.649 273.035 195.27 C 280.357 203.09 284.708 207.85 293.165 217.167 C 294.301 218.954 299.124 222.898 299.124 222.898 C 299.124 222.898 305.758 223.985 310.5 223.5 C 316.167 223.5 321.833 223.5 327.5 223.5 C 326.065 215.629 323.231 208.296 319 201.5 C 303.979 179.306 283.146 166.973 256.5 164.5 C 256.5 160.5 256.5 156.5 256.5 152.5 C 288.16 155.245 312.66 169.912 330 196.5 C 337.249 208.166 340.749 220.833 340.5 234.5 C 325.797 234.42 311.131 234.587 296.5 235 C 283.675 221.676 270.342 208.842 256.5 196.5 C 248.317 203.849 240.65 211.683 233.5 220 C 222.684 223.853 219.517 220.687 224 210.5 C 232.035 202.298 240.202 194.298 248.5 186.5 Z" stroke-linecap="round"></path>
  </g>
  <g transform="matrix(3.27 0 0 3.27 352.99 344.17)">
    <path style="stroke: none; stroke-width: 1; stroke-dasharray: none; stroke-linecap: butt; stroke-dashoffset: 0; stroke-linejoin: miter; stroke-miterlimit: 4; fill-rule: evenodd; opacity: 0.997;" vector-effect="non-scaling-stroke" transform=" translate(-194.75, -183)" d="M 242.5 130.5 C 244.167 130.5 245.833 130.5 247.5 130.5 C 247.5 134.833 247.5 139.167 247.5 143.5 C 201.623 147.217 171.456 170.884 157 214.5 C 155.353 221.07 154.353 227.736 154 234.5 C 150 235.833 146 235.833 142 234.5 C 145.359 195.283 163.859 165.45 197.5 145 C 211.863 137.822 226.863 132.989 242.5 130.5 Z" stroke-linecap="round"></path>
  </g>
  <g transform="matrix(3.27 0 0 3.27 388.14 380)">
    <path style="stroke: none; stroke-width: 1; stroke-dasharray: none; stroke-linecap: butt; stroke-dashoffset: 0; stroke-linejoin: miter; stroke-miterlimit: 4; fill-rule: evenodd; opacity: 1;" vector-effect="non-scaling-stroke" transform=" translate(-205.5, -193.96)" d="M 238.5 152.5 C 241.5 152.5 244.5 152.5 247.5 152.5 C 247.5 156.5 247.5 160.5 247.5 164.5 C 221.058 166.803 200.225 178.803 185 200.5 C 180.67 207.662 177.836 215.328 176.5 223.5 C 188.171 223.333 199.838 223.5 211.5 224 C 212.938 224.219 214.271 224.719 215.5 225.5 C 212.314 228.521 208.98 231.354 205.5 234 C 191.528 235.457 177.528 235.791 163.5 235 C 164.294 211.735 173.294 192.068 190.5 176 C 204.569 164.132 220.569 156.299 238.5 152.5 Z" stroke-linecap="round"></path>
  </g>
  <g transform="matrix(3.27 0 0 3.27 630.09 412.68)"></g>
  <g transform="matrix(3.27 0 0 3.27 618.53 517.45)">
    <path style="stroke: none; stroke-width: 1; stroke-dasharray: none; stroke-linecap: butt; stroke-dashoffset: 0; stroke-linejoin: miter; stroke-miterlimit: 4; fill-rule: evenodd; opacity: 1;" vector-effect="non-scaling-stroke" transform=" translate(-275.97, -236)" d="M 256.5 208.5 C 272.102 222.6 287.269 237.267 302 252.5 C 304.977 258.207 303.31 261.874 297 263.5 C 295.775 263.138 294.609 262.638 293.5 262 C 279.216 246.927 264.383 232.427 249 218.5 C 248.333 217.5 248.333 216.5 249 215.5 C 251.998 213.667 254.498 211.334 256.5 208.5 Z" stroke-linecap="round"></path>
  </g>
  <g transform="matrix(3.27 0 0 3.27 411.35 559.05)">
    <path style="stroke: none; stroke-width: 1; stroke-dasharray: none; stroke-linecap: butt; stroke-dashoffset: 0; stroke-linejoin: miter; stroke-miterlimit: 4; fill-rule: evenodd; opacity: 0.999;" vector-effect="non-scaling-stroke" transform=" translate(-212.6, -248.72)" d="M 218.5 234.5 C 225.558 234.699 228.058 238.033 226 244.5 C 220.134 250.031 214.634 255.865 209.5 262 C 203.837 264.274 200.17 262.441 198.5 256.5 C 204.138 248.197 210.804 240.864 218.5 234.5 Z" stroke-linecap="round"></path>
  </g>
  <g transform="matrix(3.27 0 0 3.27 568.2 564.19)">
    <path style="stroke: none; stroke-width: 1; stroke-dasharray: none; stroke-linecap: butt; stroke-dashoffset: 0; stroke-linejoin: miter; stroke-miterlimit: 4; fill-rule: evenodd; opacity: 1;" vector-effect="non-scaling-stroke" transform=" translate(-260.57, -250.29)" d="M 241.5 223.5 C 244.938 225.759 248.271 228.259 251.5 231 C 263.304 241.803 274.804 252.97 286 264.5 C 291.214 273.589 288.714 277.756 278.5 277 C 263.833 261 248.5 245.667 232.5 231 C 235.69 228.636 238.69 226.136 241.5 223.5 Z" stroke-linecap="round"></path>
  </g>
  <g transform="matrix(3.27 0 0 3.27 386.51 680.93)">
    <path style="stroke: none; stroke-width: 1; stroke-dasharray: none; stroke-linecap: butt; stroke-dashoffset: 0; stroke-linejoin: miter; stroke-miterlimit: 4; fill-rule: evenodd; opacity: 0.998;" vector-effect="non-scaling-stroke" transform=" translate(-205, -286)" d="M 197.5 295.5 C 210.686 308.756 226.686 316.09 245.5 317.5 C 246.787 318.871 247.453 320.705 247.5 323 C 247.333 324.833 247.167 326.667 247 328.5 C 218.993 326.827 196.326 314.827 179 292.5 C 168.615 278.178 163.115 262.178 162.5 244.5 C 173.831 244.093 185.164 243.759 196.5 243.5 C 194.913 246.919 194.247 250.585 194.5 254.5 C 188.523 255.165 182.523 255.498 176.5 255.5 C 179.144 271.138 186.144 284.471 197.5 295.5 Z" stroke-linecap="round"></path>
  </g>
  <g transform="matrix(3.27 0 0 3.27 464.5 603.61)">
    <path style="stroke: none; stroke-width: 1; stroke-dasharray: none; stroke-linecap: butt; stroke-dashoffset: 0; stroke-linejoin: miter; stroke-miterlimit: 4; fill-rule: evenodd; opacity: 0.999;" vector-effect="non-scaling-stroke" transform=" translate(-228.85, -262.35)" d="M 234.5 247.5 C 242.742 247.243 245.242 250.91 242 258.5 C 235.801 264.364 229.968 270.531 224.5 277 C 215.989 278.16 212.822 274.66 215 266.5 C 221.395 259.937 227.895 253.603 234.5 247.5 Z" stroke-linecap="round"></path>
  </g>
  <g transform="matrix(3.27 0 0 3.27 353.8 715.91)">
    <path style="stroke: none; stroke-width: 1; stroke-dasharray: none; stroke-linecap: butt; stroke-dashoffset: 0; stroke-linejoin: miter; stroke-miterlimit: 4; fill-rule: evenodd; opacity: 0.999;" vector-effect="non-scaling-stroke" transform=" translate(-195, -296.7)" d="M 174.5 300.5 C 192.662 323.945 216.662 336.612 246.5 338.5 C 247.821 342.233 247.821 346.066 246.5 350 C 192.011 344.186 157.844 314.686 144 261.5 C 143.169 255.523 142.669 249.523 142.5 243.5 C 146.437 243.207 150.27 243.54 154 244.5 C 155.416 265.257 162.249 283.924 174.5 300.5 Z" stroke-linecap="round"></path>
  </g>
  <g transform="matrix(3.27 0 0 3.27 763.32 752.87)">
    <path style="stroke: none; stroke-width: 1; stroke-dasharray: none; stroke-linecap: butt; stroke-dashoffset: 0; stroke-linejoin: miter; stroke-miterlimit: 4; fill-rule: evenodd; opacity: 0.999;" vector-effect="non-scaling-stroke" transform=" translate(-320.25, -308)" d="M 256.5 361.5 C 279.582 360.139 300.582 352.806 319.5 339.5 C 351.584 315.845 369.251 284.012 372.5 244 C 376.423 243.207 380.256 243.374 384 244.5 C 379.878 298.258 353.712 337.091 305.5 361 C 289.876 367.825 273.542 371.658 256.5 372.5 C 256.5 368.833 256.5 365.167 256.5 361.5 Z" stroke-linecap="round"></path>
  </g>
  <g transform="matrix(3.27 0 0 3.27 514.86 647.56)">
    <path style="stroke: none; stroke-width: 1; stroke-dasharray: none; stroke-linecap: butt; stroke-dashoffset: 0; stroke-linejoin: miter; stroke-miterlimit: 4; fill-rule: evenodd; opacity: 1;" vector-effect="non-scaling-stroke" transform=" translate(-244.26, -275.79)" d="M 249.5 261.5 C 257.137 261.128 259.637 264.461 257 271.5 C 251.5 277.667 246 283.833 240.5 290 C 236.447 290.559 233.28 289.059 231 285.5 C 230.333 283.833 230.333 282.167 231 280.5 C 236.714 273.749 242.881 267.415 249.5 261.5 Z" stroke-linecap="round"></path>
  </g>
  <g transform="matrix(3.27 0 0 3.27 564.91 688.37)">
    <path style="stroke: none; stroke-width: 1; stroke-dasharray: none; stroke-linecap: butt; stroke-dashoffset: 0; stroke-linejoin: miter; stroke-miterlimit: 4; fill-rule: evenodd; opacity: 1;" vector-effect="non-scaling-stroke" transform=" translate(-259.57, -288.28)" d="M 262.5 276.5 C 270.431 276.348 272.931 280.014 270 287.5 C 267.083 293.418 262.583 297.585 256.5 300 C 250.333 300.5 247.5 297.667 248 291.5 C 253.037 286.631 257.87 281.631 262.5 276.5 Z" stroke-linecap="round"></path>
  </g>
  <g transform="matrix(3.27 0 0 3.27 693.84 682.56)">
    <path style="stroke: none; stroke-width: 1; stroke-dasharray: none; stroke-linecap: butt; stroke-dashoffset: 0; stroke-linejoin: miter; stroke-miterlimit: 4; fill-rule: evenodd; opacity: 0.997;" vector-effect="non-scaling-stroke" transform=" translate(-299, -286.5)" d="M 256.5 318.5 C 263.644 317.731 270.644 316.231 277.5 314 C 280.633 313.14 283.3 311.64 285.5 309.5 C 308.036 298.28 322.036 280.28 327.5 255.5 C 321.5 255.167 315.5 254.833 309.5 254.5 C 309.09 250.613 308.09 246.947 306.5 243.5 C 318.167 243.5 329.833 243.5 341.5 243.5 C 338.215 279.935 320.215 306.102 287.5 322 C 277.506 325.915 267.173 328.415 256.5 329.5 C 256.5 325.833 256.5 322.167 256.5 318.5 Z" stroke-linecap="round"></path>
  </g>
  <g transform="matrix(3.27 0 0 3.27 728.17 716.72)">
    <path style="stroke: none; stroke-width: 1; stroke-dasharray: none; stroke-linecap: butt; stroke-dashoffset: 0; stroke-linejoin: miter; stroke-miterlimit: 4; fill-rule: evenodd; opacity: 1;" vector-effect="non-scaling-stroke" transform=" translate(-309.5, -296.95)" d="M 256.5 338.5 C 274.951 337.73 291.618 332.063 306.5 321.5 C 332.853 302.82 347.353 277.154 350 244.5 C 354.066 243.536 358.233 243.203 362.5 243.5 C 358.445 286.34 337.779 318.173 300.5 339 C 286.648 345.963 271.981 349.796 256.5 350.5 C 256.5 346.5 256.5 342.5 256.5 338.5 Z" stroke-linecap="round"></path>
  </g>
  <g transform="matrix(3.27 0 0 3.27 440.45 747.96)"></g>
  <g transform="matrix(3.27 0 0 3.27 317.78 752.04)">
    <path style="stroke: none; stroke-width: 1; stroke-dasharray: none; stroke-linecap: butt; stroke-dashoffset: 0; stroke-linejoin: miter; stroke-miterlimit: 4; fill-rule: evenodd; opacity: 1;" vector-effect="non-scaling-stroke" transform=" translate(-183.98, -307.75)" d="M 154.5 310.5 C 177.049 341.78 207.716 358.446 246.5 360.5 C 247.821 364.233 247.821 368.066 246.5 372 C 181.785 365.564 140.618 331.064 123 268.5 C 121.123 260.27 120.29 251.937 120.5 243.5 C 124.5 243.5 128.5 243.5 132.5 243.5 C 133.449 268.012 140.782 290.345 154.5 310.5 Z" stroke-linecap="round"></path>
  </g>
  <g transform="matrix(3.27 0 0 3.27 602.29 772.48)"></g>
  <g transform="matrix(3.27 0 0 3.27 636.62 824.79)"></g>
  <g transform="matrix(3.27 0 0 3.27 404.49 790.46)"></g>
  <g transform="matrix(3.27 0 0 3.27 371.79 842.77)"></g>
  <g transform="matrix(3.27 0 0 3.27 656.98 891.81)"></g>
</svg>