<?xml version="1.0" encoding="UTF-8"?>
<!DOCTYPE svg PUBLIC "-//W3C//DTD SVG 1.1//EN" "http://www.w3.org/Graphics/SVG/1.1/DTD/svg11.dtd">
<svg xmlns="http://www.w3.org/2000/svg" version="1.1" width="500px" height="500px" style="shape-rendering:geometricPrecision; text-rendering:geometricPrecision; image-rendering:optimizeQuality; fill-rule:evenodd; clip-rule:evenodd" xmlns:xlink="http://www.w3.org/1999/xlink">
<g><path style="opacity:0.102" fill="#fefefe" d="M -0.5,-0.5 C 166.167,-0.5 332.833,-0.5 499.5,-0.5C 499.5,166.167 499.5,332.833 499.5,499.5C 332.833,499.5 166.167,499.5 -0.5,499.5C -0.5,332.833 -0.5,166.167 -0.5,-0.5 Z"/></g>
<g><path style="opacity:0.998" fill="#14191f" d="M 256.5,109.5 C 311.232,113.413 350.399,140.079 374,189.5C 379.918,203.921 383.084,218.921 383.5,234.5C 379.167,234.5 374.833,234.5 370.5,234.5C 367.325,186.981 344.325,152.814 301.5,132C 287.128,125.824 272.128,122.324 256.5,121.5C 256.5,117.5 256.5,113.5 256.5,109.5 Z"/></g>
<g><path style="opacity:0.999" fill="#141920" d="M 237.5,109.5 C 240.833,109.5 244.167,109.5 247.5,109.5C 247.5,113.5 247.5,117.5 247.5,121.5C 199.818,124.724 164.984,147.391 143,189.5C 136.658,204.198 133.158,219.532 132.5,235.5C 128.116,235.826 123.783,235.492 119.5,234.5C 127.984,163.683 167.318,122.016 237.5,109.5 Z"/></g>
<g><path style="opacity:0.998" fill="#14191f" d="M 256.5,130.5 C 300.056,134.588 331.889,155.922 352,194.5C 358.313,207.087 361.147,220.42 360.5,234.5C 356.833,234.5 353.167,234.5 349.5,234.5C 345.657,195.49 325.991,167.657 290.5,151C 279.632,146.393 268.299,143.893 256.5,143.5C 256.5,139.167 256.5,134.833 256.5,130.5 Z"/></g>
<g><path style="opacity:0.999" fill="#14181e" d="M 248.5,186.5 C 261.116,182.614 267.283,187.281 267,200.5C 274.322,208.32 282.155,215.653 290.5,222.5C 292.341,223.23 294.175,223.897 296,224.5C 300.925,224.319 305.758,223.985 310.5,223.5C 316.167,223.5 321.833,223.5 327.5,223.5C 326.065,215.629 323.231,208.296 319,201.5C 303.979,179.306 283.146,166.973 256.5,164.5C 256.5,160.5 256.5,156.5 256.5,152.5C 288.16,155.245 312.66,169.912 330,196.5C 337.249,208.166 340.749,220.833 340.5,234.5C 325.797,234.42 311.131,234.587 296.5,235C 283.675,221.676 270.342,208.842 256.5,196.5C 248.317,203.849 240.65,211.683 233.5,220C 222.684,223.853 219.517,220.687 224,210.5C 232.035,202.298 240.202,194.298 248.5,186.5 Z"/></g>
<g><path style="opacity:0.997" fill="#141a20" d="M 242.5,130.5 C 244.167,130.5 245.833,130.5 247.5,130.5C 247.5,134.833 247.5,139.167 247.5,143.5C 201.623,147.217 171.456,170.884 157,214.5C 155.353,221.07 154.353,227.736 154,234.5C 150,235.833 146,235.833 142,234.5C 145.359,195.283 163.859,165.45 197.5,145C 211.863,137.822 226.863,132.989 242.5,130.5 Z"/></g>
<g><path style="opacity:1" fill="#161c21" d="M 238.5,152.5 C 241.5,152.5 244.5,152.5 247.5,152.5C 247.5,156.5 247.5,160.5 247.5,164.5C 221.058,166.803 200.225,178.803 185,200.5C 180.67,207.662 177.836,215.328 176.5,223.5C 188.171,223.333 199.838,223.5 211.5,224C 212.938,224.219 214.271,224.719 215.5,225.5C 212.314,228.521 208.98,231.354 205.5,234C 191.528,235.457 177.528,235.791 163.5,235C 164.294,211.735 173.294,192.068 190.5,176C 204.569,164.132 220.569,156.299 238.5,152.5 Z"/></g>
<g><path style="opacity:1" fill="#25292c" d="M 310.5,223.5 C 305.758,223.985 300.925,224.319 296,224.5C 294.175,223.897 292.341,223.23 290.5,222.5C 282.155,215.653 274.322,208.32 267,200.5C 267.283,187.281 261.116,182.614 248.5,186.5C 249.692,184.078 251.692,183.078 254.5,183.5C 259.047,183.887 263.381,185.053 267.5,187C 279.535,197.368 290.535,208.701 300.5,221C 303.536,223.006 306.869,223.84 310.5,223.5 Z"/></g>
<g><path style="opacity:1" fill="#12161d" d="M 256.5,208.5 C 272.102,222.6 287.269,237.267 302,252.5C 304.977,258.207 303.31,261.874 297,263.5C 295.775,263.138 294.609,262.638 293.5,262C 279.216,246.927 264.383,232.427 249,218.5C 248.333,217.5 248.333,216.5 249,215.5C 251.998,213.667 254.498,211.334 256.5,208.5 Z"/></g>
<g><path style="opacity:0.999" fill="#151a20" d="M 218.5,234.5 C 225.558,234.699 228.058,238.033 226,244.5C 220.134,250.031 214.634,255.865 209.5,262C 203.837,264.274 200.17,262.441 198.5,256.5C 204.138,248.197 210.804,240.864 218.5,234.5 Z"/></g>
<g><path style="opacity:1" fill="#12161c" d="M 241.5,223.5 C 244.938,225.759 248.271,228.259 251.5,231C 263.304,241.803 274.804,252.97 286,264.5C 291.214,273.589 288.714,277.756 278.5,277C 263.833,261 248.5,245.667 232.5,231C 235.69,228.636 238.69,226.136 241.5,223.5 Z"/></g>
<g><path style="opacity:0.998" fill="#151920" d="M 197.5,295.5 C 210.686,308.756 226.686,316.09 245.5,317.5C 246.787,318.871 247.453,320.705 247.5,323C 247.333,324.833 247.167,326.667 247,328.5C 218.993,326.827 196.326,314.827 179,292.5C 168.615,278.178 163.115,262.178 162.5,244.5C 173.831,244.093 185.164,243.759 196.5,243.5C 194.913,246.919 194.247,250.585 194.5,254.5C 188.523,255.165 182.523,255.498 176.5,255.5C 179.144,271.138 186.144,284.471 197.5,295.5 Z"/></g>
<g><path style="opacity:0.999" fill="#0f151b" d="M 234.5,247.5 C 242.742,247.243 245.242,250.91 242,258.5C 235.801,264.364 229.968,270.531 224.5,277C 215.989,278.16 212.822,274.66 215,266.5C 221.395,259.937 227.895,253.603 234.5,247.5 Z"/></g>
<g><path style="opacity:0.999" fill="#15191f" d="M 174.5,300.5 C 192.662,323.945 216.662,336.612 246.5,338.5C 247.821,342.233 247.821,346.066 246.5,350C 192.011,344.186 157.844,314.686 144,261.5C 143.169,255.523 142.669,249.523 142.5,243.5C 146.437,243.207 150.27,243.54 154,244.5C 155.416,265.257 162.249,283.924 174.5,300.5 Z"/></g>
<g><path style="opacity:0.999" fill="#151a20" d="M 256.5,361.5 C 279.582,360.139 300.582,352.806 319.5,339.5C 351.584,315.845 369.251,284.012 372.5,244C 376.423,243.207 380.256,243.374 384,244.5C 379.878,298.258 353.712,337.091 305.5,361C 289.876,367.825 273.542,371.658 256.5,372.5C 256.5,368.833 256.5,365.167 256.5,361.5 Z"/></g>
<g><path style="opacity:1" fill="#11151b" d="M 249.5,261.5 C 257.137,261.128 259.637,264.461 257,271.5C 251.5,277.667 246,283.833 240.5,290C 236.447,290.559 233.28,289.059 231,285.5C 230.333,283.833 230.333,282.167 231,280.5C 236.714,273.749 242.881,267.415 249.5,261.5 Z"/></g>
<g><path style="opacity:1" fill="#15191d" d="M 262.5,276.5 C 270.431,276.348 272.931,280.014 270,287.5C 267.083,293.418 262.583,297.585 256.5,300C 250.333,300.5 247.5,297.667 248,291.5C 253.037,286.631 257.87,281.631 262.5,276.5 Z"/></g>
<g><path style="opacity:0.997" fill="#141a20" d="M 256.5,318.5 C 263.644,317.731 270.644,316.231 277.5,314C 280.633,313.14 283.3,311.64 285.5,309.5C 308.036,298.28 322.036,280.28 327.5,255.5C 321.5,255.167 315.5,254.833 309.5,254.5C 309.09,250.613 308.09,246.947 306.5,243.5C 318.167,243.5 329.833,243.5 341.5,243.5C 338.215,279.935 320.215,306.102 287.5,322C 277.506,325.915 267.173,328.415 256.5,329.5C 256.5,325.833 256.5,322.167 256.5,318.5 Z"/></g>
<g><path style="opacity:1" fill="#151b20" d="M 256.5,338.5 C 274.951,337.73 291.618,332.063 306.5,321.5C 332.853,302.82 347.353,277.154 350,244.5C 354.066,243.536 358.233,243.203 362.5,243.5C 358.445,286.34 337.779,318.173 300.5,339C 286.648,345.963 271.981,349.796 256.5,350.5C 256.5,346.5 256.5,342.5 256.5,338.5 Z"/></g>
<g><path style="opacity:0.984" fill="#999d9b" d="M 197.5,295.5 C 205.451,300.815 213.784,305.648 222.5,310C 230.243,312.677 237.91,315.177 245.5,317.5C 226.686,316.09 210.686,308.756 197.5,295.5 Z"/></g>
<g><path style="opacity:1" fill="#15191f" d="M 154.5,310.5 C 177.049,341.78 207.716,358.446 246.5,360.5C 247.821,364.233 247.821,368.066 246.5,372C 181.785,365.564 140.618,331.064 123,268.5C 121.123,260.27 120.29,251.937 120.5,243.5C 124.5,243.5 128.5,243.5 132.5,243.5C 133.449,268.012 140.782,290.345 154.5,310.5 Z"/></g>
<g><path style="opacity:0.992" fill="#8a8e89" d="M 285.5,309.5 C 283.3,311.64 280.633,313.14 277.5,314C 270.644,316.231 263.644,317.731 256.5,318.5C 256.881,317.069 257.881,316.236 259.5,316C 268.406,314.654 277.072,312.487 285.5,309.5 Z"/></g>
<g><path style="opacity:0.973" fill="#afb3ab" d="M 306.5,321.5 C 291.618,332.063 274.951,337.73 256.5,338.5C 257.6,337.442 258.934,336.608 260.5,336C 269.809,335.423 278.809,333.423 287.5,330C 293.588,326.623 299.921,323.789 306.5,321.5 Z"/></g>
<g><path style="opacity:0.984" fill="#a7aba9" d="M 174.5,300.5 C 184.386,310.443 195.386,318.943 207.5,326C 220.251,331.591 233.251,335.758 246.5,338.5C 216.662,336.612 192.662,323.945 174.5,300.5 Z"/></g>
<g><path style="opacity:0.769" fill="#a8aba9" d="M 154.5,310.5 C 161.967,318.133 169.633,325.633 177.5,333C 196.384,347.436 217.717,355.769 241.5,358C 243.653,358.099 245.319,358.933 246.5,360.5C 207.716,358.446 177.049,341.78 154.5,310.5 Z"/></g>
<g><path style="opacity:0.769" fill="#bbbfb6" d="M 319.5,339.5 C 300.582,352.806 279.582,360.139 256.5,361.5C 255.35,359.733 256.017,358.567 258.5,358C 269.815,357.755 280.815,355.755 291.5,352C 301.045,348.056 310.378,343.889 319.5,339.5 Z"/></g>
</svg>
